<svg xmlns="http://www.w3.org/2000/svg" viewBox="0 0 480 416"><defs><style>.cls-1{fill:#fff;}</style></defs><title>Recurso 2200px</title><g id="Capa_2" data-name="Capa 2"><g id="Capa_1-2" data-name="Capa 1"><path class="cls-1" d="M308,208a36,36,0,1,0,36,36A36,36,0,0,0,308,208Z"/><circle class="cls-1" cx="172" cy="244" r="36"/><path class="cls-1" d="M480,205.77c0-31.19-25.14-56.56-56-56.56a55.74,55.74,0,0,0-35.61,12.86c-35-23.77-80.78-38.32-129.65-41.27l22-79L347.15,55c1.9,26.48,24,47.49,50.65,47.49,28,0,50.78-23,50.78-51.21S425,0,397,0c-19.53,0-36.31,11.19-44.85,28.77l-90-17.89L231.05,120.4l-4.63.13c-50.63,2.21-98.34,16.93-134.77,41.53A55.39,55.39,0,0,0,56,149.21c-30.89,0-56,25.37-56,56.56a56.42,56.42,0,0,0,28.11,49.06,99.2,99.2,0,0,0-.89,13.34c.11,39.74,22.49,77,63,105C130.36,400.77,183.51,416,240,416s109.76-15.23,149.83-42.89c40.53-28,62.85-65.27,62.85-105.06a109.44,109.44,0,0,0-.84-13.3A56.33,56.33,0,0,0,480,205.77ZM398,27a24,24,0,1,1-24,24A24,24,0,0,1,398,27ZM26.72,205.77a29.6,29.6,0,0,1,29.42-29.71,29,29,0,0,1,13.62,3.43c-15.5,14.41-26.93,30.41-34.07,47.68A30.21,30.21,0,0,1,26.72,205.77ZM374.82,351c-35.74,24.59-83.6,38.14-134.77,38.14S141,375.61,105.29,351c-33-22.79-51.24-52.26-51.24-83a78.65,78.65,0,0,1,5-27.28c5.68-15.74,16.16-30.48,31.15-43.79a153.56,153.56,0,0,1,14.76-11.53l.3-.21h0l.24-.17c35.72-24.52,83.52-38,134.61-38s98.9,13.51,134.62,38l.23.17.34.25A155.8,155.8,0,0,1,390,196.92c15,13.32,25.48,28.05,31.16,43.81a85.22,85.22,0,0,1,4.31,17.67,77.77,77.77,0,0,1,.6,9.65C426.06,298.77,407.86,328.24,374.82,351Zm69.6-123.92c-7.13-17.28-18.56-33.29-34.07-47.72A29.11,29.11,0,0,1,424,176a29.59,29.59,0,0,1,29.41,29.71,30,30,0,0,1-9,21.39Z"/><path class="cls-1" d="M307.23,314.22c-.25.25-25.56,26.07-67.15,26.27-42-.2-66.28-25.23-67.31-26.27h0a4.14,4.14,0,0,0-5.83,0l-13.7,13.47a4.14,4.14,0,0,0,0,5.87l0,0h0c3.4,3.4,34.7,34.23,86.78,34.45,51.94-.22,83.38-31,86.78-34.45h0a4.16,4.16,0,0,0,0-5.88l0,0-13.71-13.47a4.13,4.13,0,0,0-5.81,0Z"/></g></g></svg>