<svg xmlns="http://www.w3.org/2000/svg" viewBox="0 0 45 38.57"><defs><style>.cls-1{fill:#fff;}</style></defs><title>Recurso 9200px</title><g id="Capa_2" data-name="Capa 2"><g id="Capa_1-2" data-name="Capa 1"><path class="cls-1" d="M35.76,38.57A9.24,9.24,0,1,1,45,29.33,9.24,9.24,0,0,1,35.76,38.57Zm0-15.27a6,6,0,1,0,6,6A6,6,0,0,0,35.76,23.3Z"/><path class="cls-1" d="M9.24,38.57a9.24,9.24,0,1,1,9.24-9.24A9.24,9.24,0,0,1,9.24,38.57Zm0-15.27a6,6,0,1,0,6,6A6,6,0,0,0,9.24,23.3Z"/><path class="cls-1" d="M28.93,6.43a3.2,3.2,0,0,0,3.21-3.19v0A3.16,3.16,0,0,0,29,0H29a3.22,3.22,0,1,0,0,6.43Z"/><path class="cls-1" d="M33.7,12.86H29.31a.39.39,0,0,1-.35-.21L25.77,6.81h0a3.12,3.12,0,0,0-4.2-1.34,3,3,0,0,0-.76.56h0l-7,7.07a3.27,3.27,0,0,0-.93,2.25,3,3,0,0,0,1.86,2.72c2.86,1.65,4.87,2.86,6,3.53a.39.39,0,0,1,.19.34v6.94a1.64,1.64,0,0,0,1.53,1.65A1.62,1.62,0,0,0,24.11,29V20.29A1.62,1.62,0,0,0,23.44,19l-3.72-2.67a.4.4,0,0,1-.09-.56l0,0,4.22-4.5a.41.41,0,0,1,.57,0,.39.39,0,0,1,.08.1l2.19,4a1.59,1.59,0,0,0,1.41.83h5.62a1.61,1.61,0,0,0,1.61-1.6v-.08A1.65,1.65,0,0,0,33.7,12.86Z"/></g></g></svg>