<svg xmlns="http://www.w3.org/2000/svg" viewBox="0 0 67 67"><defs><style>.cls-1{fill:#fff;}</style></defs><title>Recurso 10200px</title><g id="Capa_2" data-name="Capa 2"><g id="Capa_1-2" data-name="Capa 1"><path class="cls-1" d="M64.7,11.17H52l1.25-5,5.35-1.82a2.28,2.28,0,0,0,1.48-2.75A2.22,2.22,0,0,0,57.31.09l-.1,0L50.65,2.35A2.24,2.24,0,0,0,49.2,3.93l-1.81,7.24H29.1a2.27,2.27,0,0,0-2.3,2.12,2.23,2.23,0,0,0,2.13,2.34h.49l.14,1.21a1.15,1.15,0,0,0,1.15,1h0a22.43,22.43,0,0,1,14,4.4A17,17,0,0,1,51,32.33a1.15,1.15,0,0,0,.46.68,10,10,0,0,1,3.69,12.06,1.13,1.13,0,0,0,0,.77,13.27,13.27,0,0,1,.75,4.41,13,13,0,0,1-3,8.37,11.26,11.26,0,0,1-4,3,1.14,1.14,0,0,0-.59.61,15.26,15.26,0,0,1-2.42,4.17h0a.34.34,0,0,0,0,.49.35.35,0,0,0,.22.08H53a6.72,6.72,0,0,0,6.68-6.16l4.77-45.2h.37A2.22,2.22,0,0,0,67,13.4v-.11A2.28,2.28,0,0,0,64.7,11.17Z"/><path class="cls-1" d="M12.94,42.43a3.34,3.34,0,0,1,2.37,1l2.17,2.17a.57.57,0,0,0,.79,0h0l2.16-2.17a3.34,3.34,0,0,1,2.37-1H50.24a1.12,1.12,0,0,0,1.13-1.1h0a5.59,5.59,0,0,0-4.47-5.47,12.72,12.72,0,0,0-5-10,18,18,0,0,0-11.23-3.47h-10c-9.52,0-16,5.42-16.19,13.52A5.58,5.58,0,0,0,0,41.32H0a1.12,1.12,0,0,0,1.12,1.11Z"/><path class="cls-1" d="M23.72,46.9a1.11,1.11,0,0,0-.79.33l-3.09,3.09a2.79,2.79,0,0,1-3.95,0L12.8,47.23A1.11,1.11,0,0,0,12,46.9H2.33a2.22,2.22,0,0,0-2.2,1.84A8.47,8.47,0,0,0,0,50.25C0,54.52,3,58,6.6,58.07A11.54,11.54,0,0,0,9,63.58,9.55,9.55,0,0,0,16.47,67H34.9a9.49,9.49,0,0,0,7.47-3.43,11.42,11.42,0,0,0,2.4-5.51c3.65-.06,6.6-3.54,6.6-7.81a9.52,9.52,0,0,0-.13-1.51A2.23,2.23,0,0,0,49,46.9Z"/></g></g></svg>