<svg xmlns="http://www.w3.org/2000/svg" viewBox="0 0 48 59.11"><defs><style>.cls-1{fill:#fdfffd;}</style></defs><title>Recurso 8200px</title><g id="Capa_2" data-name="Capa 2"><g id="Capa_1-2" data-name="Capa 1"><circle class="cls-1" cx="24" cy="6.46" r="6.46"/><path class="cls-1" d="M44.88,14.77H3.12a3.12,3.12,0,1,0,0,6.23H14.87a2.35,2.35,0,0,1,2.26,1.73c.62,1.6.32,4.68-.07,7.07l-.49,2.82a.08.08,0,0,1,0,0l-4,22.71A3.17,3.17,0,0,0,15.12,59a3.12,3.12,0,0,0,3.61-2.53v0L21.5,40.67s.88-3.75,2.5-3.75,2.51,3.75,2.51,3.75l2.76,15.8a3.14,3.14,0,1,0,6.2-1,.44.44,0,0,0,0-.1l-4-22.71a.06.06,0,0,0,0,0L31,29.79c-.38-2.39-.68-5.47-.07-7.06A2.36,2.36,0,0,1,33.11,21H44.88a3.12,3.12,0,1,0,0-6.23Z"/></g></g></svg>