<svg xmlns="http://www.w3.org/2000/svg" viewBox="0 0 172.95 175.41"><defs><style>.cls-1{fill:none;}.cls-2{fill:#821663;}.cls-3{fill:#f05923;}.cls-4{fill:#00294c;}.cls-5{fill:#211915;}</style></defs><title>Recurso 7</title><g id="Capa_2" data-name="Capa 2"><g id="Capa_1-2" data-name="Capa 1"><path class="cls-1" d="M19.78,131a65.77,65.77,0,0,0,1,13.28A93,93,0,0,1,19.78,131Z"/><path class="cls-1" d="M64.14,89.05a3.87,3.87,0,0,0,.58-.63c2-2.62,1.62-7.64,1.36-9.66-.49-.08-1-.17-1.5-.29a21.81,21.81,0,0,1-12.22-8c-1.72,6.28-4,11.37-6.73,15C53.41,84.58,59.45,86.22,64.14,89.05Z"/><path class="cls-2" d="M95.1,25.15a4.83,4.83,0,0,0-3.88-.68,29.63,29.63,0,0,0-20,14.21l-.11.19c1.56.13,2.62.38,3,.81,1,1.15,1.44,5.33,0,9a11.48,11.48,0,0,1-1,2,12.3,12.3,0,0,0,2.36,1.82l3.26,1.14a6.78,6.78,0,0,0,1.55,0l.12,0A13.25,13.25,0,0,1,79.58,52c-2.58-7.38,1-17.62,11.36-21.27a23.32,23.32,0,0,1,6.63-1.38A7.31,7.31,0,0,0,95.1,25.15ZM83.5,31.42,82.89,33l0-1.67a.75.75,0,0,0-.24-.52,1.53,1.53,0,0,0-1.21-.17l-1.72.28,1.54-.82c.25-.14,1.56-.79,2.15-.26S83.61,31.13,83.5,31.42Z"/><path class="cls-2" d="M70,40.65l0,0v0c-2,0-5.07.07-8.23.15-.87.72-1.82,1.74-1.7,2.38.06.31.41.54,1,.69,2.61.62,3.2.33,5.67-.88,1.19-.57,2.8-1.36,5.24-2.34Z"/><path class="cls-2" d="M59.61,39.12a103.3,103.3,0,0,1,11-.28l.12-.39c0-.09,2.64-8.16,12.88-13.16a69.49,69.49,0,0,0-10.94,1.28C70.4,27.84,63.27,32.25,59.61,39.12Zm13.53-8.41-.61,1.55,0-1.67a.74.74,0,0,0-.24-.52,1.55,1.55,0,0,0-1.22-.17l-1.71.28,1.53-.82c.26-.14,1.57-.79,2.16-.26S73.25,30.42,73.14,30.71Z"/><path class="cls-2" d="M94.23,51.21a3,3,0,0,1-.13,2.42,2.93,2.93,0,0,1-2.62,1.2l-1.07.05.91-.58a5.44,5.44,0,0,0,2.16-2.59,8.19,8.19,0,0,1-4.11,1.22h-.32L88,52.81h0l1-.44.09,0,1-.46.36-.19.7-.4.35-.21.61-.4h-.76l1.85-1.53A21.28,21.28,0,0,0,98.5,42.3l.24-.47h.61a24.6,24.6,0,0,0,1.48-4c.09-.35.13-.55.13-.55l.22-1.14h0v0l.33,1.12a.45.45,0,0,1,0,.17c0,.4-.14,1.53-1.34,4.44h15.06c-2.05-2.69-7.42-8.15-9.14-9.18-6.08-4.14-15.88-1-21.23,4.42-3.38,3.47-5.24,8.79-4.51,12.94a7.18,7.18,0,0,0,4,5.45c4.91,2.35,8.73,2.92,11.36,1.7a6,6,0,0,0,3.19-4.1c.1-.41.18-.7.24-.91A2.18,2.18,0,0,0,99.28,51l0-.37H94.9C94.68,50.86,94.46,51,94.23,51.21ZM90.43,36c.41-.22,4-2.11,5.36-.87.73.65.71,1.93-.08,3.91l-.61,1.55.06-1.67a2.53,2.53,0,0,0-.81-1.83c-.77-.67-2-.86-3.73-.56l-1.72.31Z"/><path class="cls-2" d="M53.52,34.75l-2.61,4.91c1.16,0,2.84-.16,4.74-.29l3.14-.2A21.9,21.9,0,0,1,72.44,25.89l.27-.13c-2.27-.6-9.48-1.93-14.61,3.5A55.86,55.86,0,0,0,53.52,34.75Zm7.7-6.92c.26-.13,1.57-.79,2.16-.26s.15,1.32,0,1.61l-.61,1.55,0-1.66a.72.72,0,0,0-.24-.52,1.5,1.5,0,0,0-1.22-.18l-1.71.28Z"/><path class="cls-2" d="M121.59,143.37a19,19,0,0,1,1.73,1.22l-1.09-2.38-.17.27A4.83,4.83,0,0,1,121.59,143.37Z"/><path class="cls-2" d="M126.13,128.08c4.19-14-3.1-45.29-5.82-55.92-2.29,2.37-11.58,11.51-18.2,11.51a5,5,0,0,1-.55,0l-.76-.06.61-.45c.17-.13,15.48-11.65,17.67-21.1a96.92,96.92,0,0,1-1.2-11.37h-18c.2.34.73,1.49,0,3.66-.6,1.78-2.11,3.09-4.48,3.9a17.25,17.25,0,0,1-5.63,1,10.47,10.47,0,0,1-6-1.74l-.57.82c-1.79,4.49-1.45,6.14-.84,6.73s2.25.1,2.26.09l1.26-.54-.93,1c-.16.18-1.46,1.53-2.63,1.53a1.34,1.34,0,0,1-.52-.1c-.86-.35-1.24-1.58-1.16-3.74A7,7,0,0,0,76,56.39a8,8,0,0,1,1.6,2.39,2.15,2.15,0,0,1,0,1.9,3.92,3.92,0,0,1-2.36,1.66l-.81.2.52-.66A2,2,0,0,0,75.39,60c-.7-2.67-6.19-5.14-7-5.51a13.25,13.25,0,0,1-3.85.94,23.91,23.91,0,0,1-3.82.1,3.2,3.2,0,0,1,.59.75c1.06,1.88-.17,4.27-.22,4.37l-.6,1.14.06-1.29c.21-4.93-3.66-5.7-3.7-5.71v-.06a6.67,6.67,0,0,1-2.11-1.36,4.88,4.88,0,0,1-1.55-3.64l.12-1.6.44,1.54c.43,1.49,1.57,5.45,9.92,4.69a9.68,9.68,0,0,0,7.16-4,13,13,0,0,0,2.59-7.81L73.28,42c-.16-.85-.24-1.14-.43-1.27l-.37.32c-.29.25-6.26,5.31-10.51,5.31a4.18,4.18,0,0,1-1.55-.27A3.89,3.89,0,0,1,58,43.87a4.56,4.56,0,0,1,.1-2.95,81.52,81.52,0,0,0-9.24.68l-3,5.32a6.88,6.88,0,0,0-.07.7,38.5,38.5,0,0,0,.81,4.63l.89,3.43c.33,1.12.71,2.29,1.16,3.48.88,1.81,2.44,5,3.2,6.55,2.54,4,6.08,7.39,11,8.38,7,1.41,11.89.81,15.34-.53h0a13.75,13.75,0,0,0,6.26-4.72l.6-.85L85,69c0,.1-.22,2.1-2.9,4.5,2.9.18,8.79,1,11.48,5.13,1.58,2.41,1,4.41-1.87,6.5-6,4.35-19.32,7.48-19.89,7.61l-.15-.55C81,89,83.09,86.23,83.18,84.5c.12-2.19-2.85-3.59-2.88-3.61l-.71-.33.75-.21c5.19-1.44,5.94-2.63,5.92-3.22,0-1.16-2.85-2.29-5.07-2.88-.2.16-.41.31-.63.47l-.12.08c-2.3,1.61-5.8,4-10.94,4.19.19,5.43-.85,9.06-3.11,10.79a4.92,4.92,0,0,1-.56.37c8.43,6,12,15.86,13.59,20.2.15.43.29.81.41,1.13s.21.5.31.75l-.52.23a8,8,0,0,1-.32-.76C73.85,98.82,64.43,90.32,54,88.88c-8.87-1.21-17.43,2.88-24.13,11.54-6.94,9-9.81,20-10.08,30.56a93,93,0,0,0,1,13.28c1.58,8.74,4.8,16,8.53,19.83,8.49,8.63,29.7,9.89,45.73,5.8.57-.72,4.14-5.7,7.77-22.07l.59-2.66,0,2.72c0,.69-.15,14.35-2.56,20.21,1.31-.49,2.56-1,3.73-1.59A180.32,180.32,0,0,1,115.79,155a4.33,4.33,0,0,1-1.2-.22l-1-.46,1.11-.08c4-.31,10.47-1.18,11.07-2.22a.12.12,0,0,0,0-.13c-.89-1.87-3.5-7.43-7.48-9.76l.28-.5c.09,0,1.2.61,2.45,1.37v0l.57-.87C122.18,140.71,123.43,137.13,126.13,128.08Zm-71-26.28-.06,0H55c-26.68,4.18-21.9,46-21.85,46.45l.35,2.83-.91-2.7c-5.19-15.59-11.08-33.26,10.12-48.82a15.19,15.19,0,0,1,12.53-3c11.75,2.5,20.9,18.31,21,18.47l-.47.32C60.67,97.59,55.16,101.76,55.11,101.8Zm22,56.94c-1.15,4.75-3.45,8.11-6.85,10a14.65,14.65,0,0,1-7.05,1.67,19.67,19.67,0,0,1-6-.92l.14-.55c12.77,1.92,19.11-10.24,19.17-10.36l1.11-2.18Zm38.46-23-.81.66.35-1c.07-.19,6.82-19.51,3.41-45.93,0-.08,0-.33.19-.41l.23-.08.12.23C119.2,89.55,128.05,125.45,115.54,135.76Z"/><path class="cls-3" d="M31.16,47.54a1.45,1.45,0,0,0,.92.14h.08l11.74.14v-1l.35-.61a10.89,10.89,0,0,1,1-3.29,3.66,3.66,0,0,1,.28-.59l-13.4-.1-.23,0a1.65,1.65,0,0,0-.95.3,2.17,2.17,0,0,0-.29.24l-.72,1.27a3.46,3.46,0,0,0-.13.92v.17L31,47.44Z"/><path class="cls-4" d="M62.62,28.55a.72.72,0,0,1,.24.52l0,1.66.61-1.55c.11-.29.45-1.17,0-1.61s-1.9.13-2.16.26l-1.53.82,1.71-.28A1.5,1.5,0,0,1,62.62,28.55Z"/><path class="cls-4" d="M70.94,29.36l-1.53.82,1.71-.28a1.55,1.55,0,0,1,1.22.17.74.74,0,0,1,.24.52l0,1.67.61-1.55c.11-.29.45-1.17,0-1.61S71.2,29.22,70.94,29.36Z"/><path class="cls-4" d="M81.31,30.07l-1.54.82,1.72-.28a1.53,1.53,0,0,1,1.21.17.75.75,0,0,1,.24.52l0,1.67.61-1.55c.11-.29.46-1.17,0-1.61S81.56,29.93,81.31,30.07Z"/><path class="cls-5" d="M88,52.81h0l1-.44.09,0-.09,0Z"/><path class="cls-5" d="M99.36,41.83a24.3,24.3,0,0,0,1.47-4,24.6,24.6,0,0,1-1.48,4Z"/><path class="cls-5" d="M101.52,37.22l-.33-1.12v0l.34,1.1a.49.49,0,0,1,0,.17A.45.45,0,0,0,101.52,37.22Z"/><path class="cls-5" d="M91.44,51.07l-.35.21Z"/><path class="cls-5" d="M90.39,51.68l-.36.19Z"/><path class="cls-4" d="M94.35,37.09a2.53,2.53,0,0,1,.81,1.83l-.06,1.67L95.71,39c.79-2,.81-3.26.08-3.91-1.4-1.24-5,.65-5.36.87l-1.53.84,1.72-.31C92.32,36.23,93.58,36.42,94.35,37.09Z"/><path class="cls-4" d="M75.73,115.45l.47-.32c-.09-.16-9.24-16-21-18.47a15.19,15.19,0,0,0-12.53,3c-21.2,15.56-15.31,33.23-10.12,48.82l.91,2.7-.35-2.83c0-.42-4.83-42.27,21.85-46.45h.08l.06,0S60.67,97.59,75.73,115.45Z"/><path class="cls-4" d="M119,89.25l-.12-.23-.23.08c-.24.08-.2.33-.19.41,3.41,26.42-3.34,45.74-3.41,45.93l-.35,1,.81-.66C128.05,125.45,119.2,89.55,119,89.25Z"/><path class="cls-4" d="M57.37,168.9l-.14.55a19.67,19.67,0,0,0,6,.92,14.65,14.65,0,0,0,7.05-1.67c3.4-1.85,5.7-5.21,6.85-10l.57-2.38-1.11,2.18C76.48,158.66,70.14,170.82,57.37,168.9Z"/><path class="cls-3" d="M98.39,45.86l-.15.31A16.38,16.38,0,0,1,96.52,49h14.81c3.12-.74,4.84-1.91,5.77-3a5.47,5.47,0,0,0,.65-.9V44.4c0-.25,0-.49,0-.73a.49.49,0,0,0,0-.12h-18A26.23,26.23,0,0,1,98.39,45.86Z"/><path class="cls-3" d="M35.22,2.33h-.53l-.1,0a10.11,10.11,0,0,0-6.17,3.13,18.07,18.07,0,0,0-1.91,2.15,38.65,38.65,0,0,0-5.76,11.48c-.37,1.1-.68,2.13-1,3.13a78.44,78.44,0,0,0-2.1,10.34,97.53,97.53,0,0,0-.93,13.62,88.48,88.48,0,0,0,3.71,26.25,53.85,53.85,0,0,0,2.38,6.18,27.68,27.68,0,0,0,5.53,8.26l.07.06a13.45,13.45,0,0,0,1.68,1.39,11.26,11.26,0,0,0,1.34.8l.07,0A8.22,8.22,0,0,0,35,90v.1h.2C41.57,90.1,47.6,82,51,68.94c0-.13.07-.26.1-.39-.22-.36-.43-.72-.64-1.1-2.86-5.25-5.78-11.87-6.25-17.61l-.08-.31-11.8-.14a3.17,3.17,0,0,1-1.88-.3,4.43,4.43,0,0,1-2.37-3.92c0-.07,0-.14,0-.2a4.66,4.66,0,0,1,1.89-3.85,3.42,3.42,0,0,1,1.93-.61,2.6,2.6,0,0,1,.5,0l14.4.09.09-.1.12-.13,1.64-.68a2.12,2.12,0,0,0,.42-.21.35.35,0,0,0,.09-.15c0-.09.08-.18.14-.29l1.46-2.74c.24-.48.51-1,.81-1.51l1.22-2.29,0-.23C50.2,14.65,43,2.33,35.22,2.33ZM32.15,87c-6.25-7.4-10.53-22.48-10.53-39.85,0-16.27,3.75-30.51,9.35-38.34-2.83,10-4.54,23-4.54,37.19C26.43,62,28.62,76.5,32.15,87Z"/><path class="cls-3" d="M171.23,45.64c0-24.2-8.28-43.88-18.46-43.88h0a8.08,8.08,0,0,0-3.46.79A12.4,12.4,0,0,0,146,4.92c-7.08,6.8-11.66,22.79-11.66,40.72s4.56,33.87,11.62,40.69a9.88,9.88,0,0,0,6.84,3.2C163,89.53,171.23,69.84,171.23,45.64Zm-33-.76c0-16.27,3.74-30.5,9.35-38.33-2.84,10-4.54,23-4.54,37.18,0,16,2.18,30.55,5.72,41C142.54,77.33,138.27,62.26,138.27,44.88Zm15.54,5.79a4.43,4.43,0,1,1,4.2-4.42A4.31,4.31,0,0,1,153.81,50.67Z"/><path class="cls-4" d="M167.22,13.66C163.43,4.87,158.3,0,152.77,0h0L137.93,0c-10.68,0-19.26,17.93-20.11,41.83h-1.71c-1.21-2.62-6.59-12.71-17.89-12.54A7.25,7.25,0,0,0,95.34,24c-2.21-1.48-5.45-1.38-9.61.3l-1,.44-.24-.07a17.31,17.31,0,0,0-10.91.7c-4.79-1.72-9.22-1.59-13.15.36a19,19,0,0,0-6.16,5.08C51.41,12.71,43.84.6,35.22.6H35V.5h0L20.18.46C16,.46,12,3.25,8.63,8.54A47.78,47.78,0,0,0,3.29,21l-.35,1.23c-.19.7-.37,1.42-.54,2.15C2,26.26,1.57,28.2,1.25,30.1v.11c-.06.33-.1.67-.15,1h0l-.1.72V32l-.12.95h0C.44,36,.17,39.23.06,42.49v.29c0,1-.06,2.12-.06,3.3s0,2.35.06,3.54v.07A92.36,92.36,0,0,0,2.4,67.79a55.6,55.6,0,0,0,5.14,14c3.59,6.48,8,9.91,12.64,9.91l12.13,0c-8.65,8-14.35,22.47-16,36.24-1.92,16,1.38,35.33,16.41,41.3,11.43,4.53,21.35,6.16,29.69,6.16,15,0,24.94-5.26,29.54-8.41,8.62-5.9,24.48-11.41,26-11.94a43,43,0,0,0,8.1-.92,2.27,2.27,0,0,0,1.87-1.47c.72-2.38-3.08-6.52-3.42-6.87a5.58,5.58,0,0,0-1.22-1.21,19,19,0,0,0-1.73-1.22,4.83,4.83,0,0,0,.47-.89l.17-.27c2.5-4,10.61-18,9.48-31.32-1-12.3-7.31-30.45-10.27-38.47l.15.12c3.67,11.4,9.62,18.68,16.34,18.68l14.79,0h.05c11.32,0,20.18-20,20.18-45.61C173,33.57,170.92,22.21,167.22,13.66ZM1.79,49.59c0-1.2-.07-2.38-.07-3.51s0-2.22.06-3.27a2.18,2.18,0,0,1,0-.24A95.1,95.1,0,0,1,2.58,33l13.06.33a98.84,98.84,0,0,0-.8,12.8,90,90,0,0,0,3.79,26.78A53.36,53.36,0,0,0,21,79L8.63,80.14A55.21,55.21,0,0,1,4.08,67.39,90.41,90.41,0,0,1,1.79,49.66Zm51-17.05-1.22,2.29c-.3.53-.57,1-.81,1.51l-1.46,2.74c-.06.11-.1.2-.14.29a.35.35,0,0,1-.09.15,2.12,2.12,0,0,1-.42.21L47,40.41l-.12.13-.09.1-14.4-.09a2.6,2.6,0,0,0-.5,0,3.42,3.42,0,0,0-1.93.61A4.66,4.66,0,0,0,28,45c0,.06,0,.13,0,.2a4.43,4.43,0,0,0,2.37,3.92,3.17,3.17,0,0,0,1.88.3l11.8.14.08.31c.47,5.74,3.39,12.36,6.25,17.61.21.38.42.74.64,1.1,0,.13-.06.26-.1.39C47.6,82,41.57,90.1,35.22,90.1H35V90a8.22,8.22,0,0,1-3.48-.8l-.07,0a11.26,11.26,0,0,1-1.34-.8A13.45,13.45,0,0,1,28.45,87l-.07-.06a27.68,27.68,0,0,1-5.53-8.26,53.85,53.85,0,0,1-2.38-6.18,88.48,88.48,0,0,1-3.71-26.25,97.53,97.53,0,0,1,.93-13.62,78.44,78.44,0,0,1,2.1-10.34c.28-1,.59-2,1-3.13A38.65,38.65,0,0,1,26.51,7.64a18.07,18.07,0,0,1,1.91-2.15,10.11,10.11,0,0,1,6.17-3.13l.1,0h.53c7.79,0,15,12.32,17.5,30ZM121,143c-1.25-.76-2.36-1.32-2.45-1.37l-.28.5c4,2.33,6.59,7.89,7.48,9.76a.12.12,0,0,1,0,.13c-.6,1-7.11,1.91-11.07,2.22l-1.11.08,1,.46a4.33,4.33,0,0,0,1.2.22A180.32,180.32,0,0,0,84.56,166.5c-1.17.57-2.42,1.1-3.73,1.59,2.41-5.86,2.55-19.52,2.56-20.21l0-2.72-.59,2.66c-3.63,16.37-7.2,21.35-7.77,22.07-16,4.09-37.24,2.83-45.73-5.8-3.73-3.79-6.95-11.09-8.53-19.83a65.77,65.77,0,0,1-1-13.28c.27-10.52,3.14-21.6,10.08-30.56C36.56,91.76,45.12,87.67,54,88.88c10.44,1.44,19.86,9.94,25.31,22.82a8,8,0,0,0,.32.76l.52-.23c-.1-.25-.2-.5-.31-.75s-.26-.7-.41-1.13c-1.58-4.34-5.16-14.19-13.59-20.2a4.92,4.92,0,0,0,.56-.37c2.26-1.73,3.3-5.36,3.11-10.79,5.14-.15,8.64-2.58,10.94-4.19l.12-.08c.22-.16.43-.31.63-.47,2.22.59,5,1.72,5.07,2.88,0,.59-.73,1.78-5.92,3.22l-.75.21.71.33s3,1.42,2.88,3.61C83.09,86.23,81,89,71.65,92.21l.15.55c.57-.13,13.89-3.26,19.89-7.61,2.88-2.09,3.45-4.09,1.87-6.5-2.69-4.08-8.58-5-11.48-5.13,2.68-2.4,2.89-4.4,2.9-4.5l.08-1-.6.85a13.75,13.75,0,0,1-6.26,4.72h0c-3.45,1.34-8.37,1.94-15.34.53-4.9-1-8.44-4.36-11-8.38-.76-1.53-2.32-4.74-3.2-6.55-.45-1.19-.83-2.36-1.16-3.48l-.89-3.43a38.5,38.5,0,0,1-.81-4.63,6.88,6.88,0,0,1,.07-.7l3-5.32a81.52,81.52,0,0,1,9.24-.68,4.56,4.56,0,0,0-.1,2.95,3.89,3.89,0,0,0,2.38,2.25,4.18,4.18,0,0,0,1.55.27c4.25,0,10.22-5.06,10.51-5.31l.37-.32c.19.13.27.42.43,1.27l.11.53a13,13,0,0,1-2.59,7.81,9.68,9.68,0,0,1-7.16,4c-8.35.76-9.49-3.2-9.92-4.69l-.44-1.54-.12,1.6a4.88,4.88,0,0,0,1.55,3.64,6.67,6.67,0,0,0,2.11,1.36v.06s3.91.78,3.7,5.71l-.06,1.29.6-1.14c.05-.1,1.28-2.49.22-4.37a3.2,3.2,0,0,0-.59-.75,23.91,23.91,0,0,0,3.82-.1,13.25,13.25,0,0,0,3.85-.94c.85.37,6.34,2.84,7,5.51A2,2,0,0,1,75,61.88l-.52.66.81-.2a3.92,3.92,0,0,0,2.36-1.66,2.15,2.15,0,0,0,0-1.9A8,8,0,0,0,76,56.39a7,7,0,0,1,4.61,6.92c-.08,2.16.3,3.39,1.16,3.74a1.34,1.34,0,0,0,.52.1c1.17,0,2.47-1.35,2.63-1.53l.93-1-1.26.54s-1.5.64-2.26-.09-1-2.24.84-6.73l.57-.82a10.47,10.47,0,0,0,6,1.74,17.25,17.25,0,0,0,5.63-1c2.37-.81,3.88-2.12,4.48-3.9.73-2.17.2-3.32,0-3.66h18A96.92,96.92,0,0,0,119.08,62c-2.19,9.45-17.5,21-17.67,21.1l-.61.45.76.06a5,5,0,0,0,.55,0c6.62,0,15.91-9.14,18.2-11.51,2.72,10.63,10,41.88,5.82,55.92-2.7,9-3.95,12.63-4.53,14L121,143Zm-3.26-99.35c0,.24,0,.48,0,.73v.69a5.47,5.47,0,0,1-.65.9c-.93,1-2.65,2.22-5.77,3H96.52a16.38,16.38,0,0,0,1.72-2.78l.15-.31a26.23,26.23,0,0,0,1.4-2.31h18A.49.49,0,0,1,117.76,43.67Zm-88,1.42V45a3.46,3.46,0,0,1,.13-.92l.72-1.27a2.17,2.17,0,0,1,.29-.24,1.65,1.65,0,0,1,.95-.3l.23,0,13.4.1a3.66,3.66,0,0,0-.28.59,10.89,10.89,0,0,0-1,3.29l-.35.61v1l-11.74-.14h-.08a1.45,1.45,0,0,1-.92-.14l-.16-.1-1.22-2.3Zm34.8,33.38c.52.12,1,.21,1.5.29.26,2,.66,7-1.36,9.66a3.87,3.87,0,0,1-.58.63c-4.69-2.83-10.73-4.47-18.51-3.62,2.7-3.63,5-8.72,6.73-15A21.81,21.81,0,0,0,64.58,78.47ZM66.81,43c-2.47,1.21-3.06,1.5-5.67.88-.63-.15-1-.38-1-.69-.12-.64.83-1.66,1.7-2.38C65,40.72,68,40.67,70,40.65v0l0,0h2C69.61,41.63,68,42.42,66.81,43Zm32.47,8a2.18,2.18,0,0,1-.12,1.11c-.06.21-.14.5-.24.91a6,6,0,0,1-3.19,4.1c-2.63,1.22-6.45.65-11.36-1.7a7.18,7.18,0,0,1-4-5.45c-.73-4.15,1.13-9.47,4.51-12.94,5.35-5.47,15.15-8.56,21.23-4.42,1.72,1,7.09,6.49,9.14,9.18H100.2c1.2-2.91,1.35-4,1.34-4.44a.49.49,0,0,0,0-.17l-.34-1.1h0L101,37.25s0,.2-.13.55a24.3,24.3,0,0,1-1.47,4h-.62l-.24.47a21.28,21.28,0,0,1-5.36,6.84l-1.85,1.53h.76l-.61.4-.35.21-.7.4-.36.19-1,.46-.09,0-1,.44h0l1.1.11h.32a8.19,8.19,0,0,0,4.11-1.22,5.44,5.44,0,0,1-2.16,2.59l-.91.58,1.07-.05a2.93,2.93,0,0,0,2.62-1.2,3,3,0,0,0,.13-2.42c.23-.17.45-.35.67-.54h4.35ZM90.94,30.69C80.61,34.34,77,44.58,79.58,52a13.25,13.25,0,0,0,.73,1.69l-.12,0a6.78,6.78,0,0,1-1.55,0l-3.26-1.14A12.3,12.3,0,0,1,73,50.69a11.48,11.48,0,0,0,1-2c1.49-3.7,1-7.88,0-9-.37-.43-1.43-.68-3-.81l.11-.19a29.63,29.63,0,0,1,20-14.21,4.83,4.83,0,0,1,3.88.68,7.31,7.31,0,0,1,2.47,4.16A23.32,23.32,0,0,0,90.94,30.69ZM70.71,38.45l-.12.39a103.3,103.3,0,0,0-11,.28c3.66-6.87,10.79-11.28,13-12.55a69.49,69.49,0,0,1,10.94-1.28C73.35,30.29,70.74,38.36,70.71,38.45Zm2-12.69-.27.13A21.9,21.9,0,0,0,58.79,39.17l-3.14.2c-1.9.13-3.58.24-4.74.29l2.61-4.91a55.86,55.86,0,0,1,4.58-5.49C63.23,23.83,70.44,25.16,72.71,25.76Zm46.85,24c-.06-1.35-.09-2.75-.09-4.16,0-1,0-2,0-2.89a98.35,98.35,0,0,1,1.07-12l13,.32a101.17,101.17,0,0,0-1,14.64c0,12.92,2.37,24.89,6.35,33.34l-12.3,1.15C122.74,72.9,120.05,62.07,119.56,49.77Zm16.82-30.9c-.16.49-.31,1-.46,1.49L123,19.82c.15-.46.29-.92.45-1.37Zm-117.82.71q-.33,1-.6,2l-.06.2L5,21.25c.21-.71.43-1.41.65-2.09ZM145.93,86.33c-7.06-6.82-11.62-22.8-11.62-40.69S138.89,11.72,146,4.92a12.4,12.4,0,0,1,3.34-2.37,8.08,8.08,0,0,1,3.46-.79h0c10.18,0,18.46,19.68,18.46,43.88S163,89.53,152.77,89.53A9.88,9.88,0,0,1,145.93,86.33Z"/><path class="cls-4" d="M153.81,41.83a4.43,4.43,0,1,0,4.2,4.42A4.31,4.31,0,0,0,153.81,41.83Z"/><path class="cls-3" d="M126.63,80.13,138.93,79c-4-8.45-6.35-20.42-6.35-33.34a101.17,101.17,0,0,1,1-14.64l-13-.32a98.35,98.35,0,0,0-1.07,12c0,.89,0,1.84,0,2.89,0,1.41,0,2.81.09,4.16C120.05,62.07,122.74,72.9,126.63,80.13Z"/><path class="cls-3" d="M135.92,20.36c.15-.5.3-1,.46-1.49l-12.92-.42c-.16.45-.3.91-.45,1.37Z"/><path class="cls-3" d="M8.63,80.14,21,79a53.36,53.36,0,0,1-2.34-6.11A90,90,0,0,1,14.84,46.1a98.84,98.84,0,0,1,.8-12.8L2.58,33a95.1,95.1,0,0,0-.79,9.6,2.18,2.18,0,0,0,0,.24c0,1-.06,2.11-.06,3.27s0,2.31.07,3.51v.07A90.41,90.41,0,0,0,4.08,67.39,55.21,55.21,0,0,0,8.63,80.14Z"/><path class="cls-3" d="M17.9,21.79l.06-.2q.27-1,.6-2l-12.9-.42c-.22.68-.44,1.38-.65,2.09Z"/><path class="cls-4" d="M31,8.77c-5.6,7.83-9.35,22.07-9.35,38.34,0,17.37,4.28,32.45,10.53,39.85-3.53-10.46-5.72-25-5.72-41C26.43,31.79,28.14,18.81,31,8.77Z"/><path class="cls-4" d="M147.62,6.55c-5.61,7.83-9.35,22.06-9.35,38.33,0,17.38,4.27,32.45,10.53,39.86-3.54-10.46-5.72-25-5.72-41C143.08,29.56,144.78,16.59,147.62,6.55Z"/></g></g></svg>