<?xml version="1.0" standalone="no"?>
<!DOCTYPE svg PUBLIC "-//W3C//DTD SVG 20010904//EN"
 "http://www.w3.org/TR/2001/REC-SVG-20010904/DTD/svg10.dtd">
<svg version="1.0" xmlns="http://www.w3.org/2000/svg"
 width="130.000000pt" height="167.000000pt" viewBox="0 0 130.000000 167.000000"
 preserveAspectRatio="xMidYMid meet">

<g transform="translate(0.000000,167.000000) scale(0.100000,-0.100000)"
fill="#000000" stroke="none">
<path d="M854 1225 c-29 -13 -90 -72 -132 -129 -44 -57 -16 -116 64 -137 57
-16 102 -46 135 -92 l29 -39 10 28 c14 37 7 67 -36 136 -44 73 -46 118 -4 160
17 16 30 35 30 43 0 31 -54 48 -96 30z"/>
<path d="M500 1160 l-22 -19 26 -12 c18 -9 33 -9 49 -2 28 13 47 6 47 -17 0
-15 -13 -19 -87 -25 -49 -4 -98 -13 -110 -21 -34 -21 -31 -75 5 -109 26 -24
28 -33 26 -82 -2 -44 -8 -61 -30 -84 -24 -25 -26 -33 -22 -79 6 -56 17 -70 61
-70 32 0 37 24 7 42 -11 7 -20 18 -20 25 0 26 55 74 118 103 37 18 80 44 96
58 l30 27 -17 -27 c-22 -35 -21 -38 5 -38 12 0 43 -14 70 -31 29 -19 67 -34
94 -37 31 -3 48 -11 55 -24 6 -11 27 -37 46 -59 32 -35 40 -39 85 -39 58 0 61
17 8 35 -38 13 -65 50 -81 111 -16 63 -59 108 -128 133 -32 13 -76 38 -97 58
l-38 35 -113 -4 c-114 -3 -132 2 -113 33 6 9 34 15 84 17 81 4 100 15 94 54
-2 16 -17 30 -48 45 -56 27 -52 27 -80 3z"/>
<path d="M927 1142 c-38 -42 -10 -117 48 -128 28 -5 32 -2 53 40 12 26 22 51
22 57 0 9 -81 49 -99 49 -4 0 -15 -8 -24 -18z m27 -33 c-3 -5 -10 -7 -15 -3
-5 3 -7 10 -3 15 3 5 10 7 15 3 5 -3 7 -10 3 -15z"/>
<path d="M573 800 c-37 -16 -43 -23 -43 -49 0 -42 72 -101 124 -101 53 0 46
25 -14 51 -48 21 -49 22 -34 44 9 13 14 35 12 49 l-3 25 -42 -19z"/>
<path d="M810 728 c0 -26 64 -88 91 -88 27 0 24 12 -16 50 -19 19 -35 40 -35
47 0 7 -9 13 -20 13 -14 0 -20 -7 -20 -22z"/>
</g>
</svg>
